<?xml version="1.0" encoding="UTF-8" standalone="no"?><!DOCTYPE svg PUBLIC "-//W3C//DTD SVG 1.1//EN" "http://www.w3.org/Graphics/SVG/1.1/DTD/svg11.dtd"><svg width="100%" height="100%" viewBox="0 0 5597 1498" version="1.1" xmlns="http://www.w3.org/2000/svg" xmlns:xlink="http://www.w3.org/1999/xlink" xml:space="preserve" xmlns:serif="http://www.serif.com/" style="fill-rule:evenodd;clip-rule:evenodd;stroke-linejoin:round;stroke-miterlimit:2;"><g id="symbol"><path d="M748.656,0c413.195,0 748.657,335.462 748.657,748.656c-0,413.195 -335.462,748.657 -748.657,748.657c-413.194,-0 -748.656,-335.462 -748.656,-748.657c0,-413.194 335.462,-748.656 748.656,-748.656Zm0,187.164c309.896,0 561.493,251.596 561.493,561.492c-0,309.896 -251.597,561.493 -561.493,561.493c-309.896,-0 -561.492,-251.597 -561.492,-561.493c0,-309.896 251.596,-561.492 561.492,-561.492Z"/><path d="M748.656,239.082c281.242,0 509.575,228.333 509.575,509.574c-0,281.242 -228.333,509.575 -509.575,509.575c-281.241,-0 -509.574,-228.333 -509.574,-509.575c0,-281.241 228.333,-509.574 509.574,-509.574Zm0,76.436c239.056,0 433.138,194.083 433.138,433.138c0,239.056 -194.082,433.138 -433.138,433.138c-239.055,0 -433.138,-194.082 -433.138,-433.138c0,-239.055 194.083,-433.138 433.138,-433.138Z"/><path d="M748.656,356.565c216.402,-0 392.092,175.69 392.092,392.091c0,216.402 -175.69,392.092 -392.092,392.092c-216.401,0 -392.091,-175.69 -392.091,-392.092c-0,-216.401 175.69,-392.091 392.091,-392.091Zm0,33.626c197.843,-0 358.466,160.623 358.466,358.465c0,197.843 -160.623,358.466 -358.466,358.466c-197.842,0 -358.465,-160.623 -358.465,-358.466c-0,-197.842 160.623,-358.465 358.465,-358.465Z"/></g><g><path d="M1605.76,380.305c-2.023,-0 -3.679,-0.69 -4.966,-2.07c-1.288,-1.379 -1.932,-2.989 -1.932,-4.828l0,-179.345c0,-2.023 0.644,-3.679 1.932,-4.967c1.287,-1.287 2.943,-1.931 4.966,-1.931l84.154,0c15.819,0 28.787,2.207 38.904,6.622c10.117,4.415 17.613,10.715 22.487,18.9c4.875,8.186 7.312,17.889 7.312,29.109c0,6.622 -1.241,12.462 -3.725,17.521c-2.483,5.058 -5.518,9.243 -9.105,12.554c-3.587,3.311 -6.944,5.702 -10.071,7.174c6.99,3.311 13.198,8.737 18.624,16.279c5.427,7.541 8.14,16.371 8.14,26.488c-0,12.14 -2.713,22.579 -8.14,31.316c-5.426,8.737 -13.335,15.451 -23.728,20.142c-10.393,4.69 -23.131,7.036 -38.214,7.036l-86.638,-0Zm42.767,-35.869l38.352,-0c7.91,-0 13.888,-2.3 17.935,-6.898c4.047,-4.599 6.07,-9.841 6.07,-15.727c-0,-6.438 -2.069,-11.865 -6.208,-16.279c-4.139,-4.415 -10.071,-6.622 -17.797,-6.622l-38.352,-0l0,45.526Zm0,-80.568l35.869,0c7.542,0 13.198,-1.977 16.969,-5.932c3.771,-3.955 5.656,-8.875 5.656,-14.761c0,-5.886 -1.885,-10.715 -5.656,-14.486c-3.771,-3.771 -9.427,-5.656 -16.969,-5.656l-35.869,0l0,40.835Z" style="fill-rule:nonzero;"/><path d="M1856.29,383.064c-21.705,-0 -38.996,-5.886 -51.872,-17.659c-12.876,-11.772 -19.59,-29.247 -20.142,-52.424l0,-9.657c0.552,-14.531 3.817,-26.993 9.795,-37.386c5.978,-10.393 14.256,-18.303 24.833,-23.729c10.576,-5.426 22.947,-8.139 37.11,-8.139c16.187,-0 29.569,3.219 40.146,9.657c10.577,6.438 18.532,15.175 23.866,26.212c5.335,11.036 8.002,23.636 8.002,37.8l-0,6.622c-0,2.023 -0.644,3.679 -1.931,4.966c-1.288,1.288 -2.944,1.932 -4.967,1.932l-88.293,-0l0,1.931c0.184,5.335 1.15,10.209 2.897,14.624c1.748,4.414 4.323,7.909 7.726,10.484c3.403,2.576 7.588,3.863 12.554,3.863c3.679,0 6.76,-0.598 9.243,-1.793c2.484,-1.196 4.553,-2.575 6.208,-4.139c1.656,-1.563 2.943,-2.897 3.863,-4.001c1.656,-2.023 2.989,-3.265 4.001,-3.725c1.012,-0.459 2.621,-0.689 4.828,-0.689l34.214,-0c1.839,-0 3.357,0.551 4.553,1.655c1.195,1.104 1.701,2.575 1.517,4.415c-0.184,3.127 -1.747,6.898 -4.69,11.312c-2.944,4.415 -7.22,8.784 -12.831,13.106c-5.61,4.323 -12.646,7.864 -21.107,10.623c-8.461,2.759 -18.302,4.139 -29.523,4.139Zm-23.453,-89.121l46.63,0l-0,-0.552c-0,-6.07 -0.874,-11.266 -2.621,-15.589c-1.748,-4.323 -4.415,-7.679 -8.002,-10.071c-3.587,-2.391 -7.863,-3.587 -12.83,-3.587c-4.782,0 -8.921,1.196 -12.416,3.587c-3.495,2.392 -6.162,5.748 -8.002,10.071c-1.839,4.323 -2.759,9.519 -2.759,15.589l0,0.552Z" style="fill-rule:nonzero;"/></g><g><path d="M1622.29,1106.47c-6.874,-0 -12.498,-2.343 -16.872,-7.03c-4.374,-4.686 -6.561,-10.154 -6.561,-16.402l0,-609.234c0,-6.874 2.187,-12.497 6.561,-16.871c4.374,-4.374 9.998,-6.561 16.872,-6.561l431.15,-0c6.873,-0 12.497,2.187 16.871,6.561c4.374,4.374 6.561,9.997 6.561,16.871l-0,94.665c-0,6.874 -2.187,12.498 -6.561,16.872c-4.374,4.374 -9.998,6.561 -16.871,6.561l-289.621,-0l0,137.78l270.875,0c6.873,0 12.497,2.343 16.871,7.03c4.374,4.686 6.561,10.466 6.561,17.339l0,93.729c0,6.248 -2.187,11.716 -6.561,16.402c-4.374,4.687 -9.998,7.03 -16.871,7.03l-270.875,-0l0,211.826c0,6.248 -2.187,11.716 -6.561,16.402c-4.374,4.687 -9.997,7.03 -16.871,7.03l-118.097,-0Z" style="fill-rule:nonzero;"/><path d="M2342.13,1115.84c-35.617,-0 -67.328,-8.123 -95.134,-24.37c-27.806,-16.246 -49.52,-40.147 -65.141,-71.702c-15.622,-31.555 -23.433,-70.14 -23.433,-115.754l0,-261.502c0,-6.874 2.187,-12.497 6.561,-16.871c4.374,-4.374 9.998,-6.561 16.872,-6.561l117.16,-0c6.873,-0 12.653,2.187 17.34,6.561c4.686,4.374 7.029,9.997 7.029,16.871l0,255.878c0,61.236 27.181,91.854 81.544,91.854c25.619,-0 46.083,-7.967 61.392,-23.901c15.309,-15.934 22.963,-38.585 22.963,-67.953l0,-255.878c0,-6.874 2.187,-12.497 6.561,-16.871c4.374,-4.374 9.998,-6.561 16.871,-6.561l117.161,-0c6.873,-0 12.497,2.187 16.871,6.561c4.374,4.374 6.561,9.997 6.561,16.871l-0,440.523c-0,6.248 -2.187,11.716 -6.561,16.402c-4.374,4.687 -9.998,7.03 -16.871,7.03l-108.725,-0c-6.249,-0 -11.716,-2.343 -16.402,-7.03c-4.687,-4.686 -7.03,-10.154 -7.03,-16.402l-0,-35.617c-16.246,22.495 -37.335,39.522 -63.267,51.082c-25.931,11.56 -56.705,17.34 -92.322,17.34Z" style="fill-rule:nonzero;"/><path d="M2787.34,1106.47c-6.873,-0 -12.497,-2.343 -16.871,-7.03c-4.374,-4.686 -6.561,-10.154 -6.561,-16.402l0,-618.607c0,-6.873 2.187,-12.497 6.561,-16.871c4.374,-4.374 9.998,-6.561 16.871,-6.561l110.6,-0c6.873,-0 12.497,2.187 16.871,6.561c4.374,4.374 6.561,9.998 6.561,16.871l-0,618.607c-0,6.248 -2.187,11.716 -6.561,16.402c-4.374,4.687 -9.998,7.03 -16.871,7.03l-110.6,-0Z" style="fill-rule:nonzero;"/><path d="M3055.4,1106.47c-6.873,-0 -12.497,-2.343 -16.871,-7.03c-4.374,-4.686 -6.561,-10.154 -6.561,-16.402l0,-618.607c0,-6.873 2.187,-12.497 6.561,-16.871c4.374,-4.374 9.998,-6.561 16.871,-6.561l110.6,-0c6.873,-0 12.497,2.187 16.871,6.561c4.374,4.374 6.561,9.998 6.561,16.871l-0,618.607c-0,6.248 -2.187,11.716 -6.561,16.402c-4.374,4.687 -9.998,7.03 -16.871,7.03l-110.6,-0Z" style="fill-rule:nonzero;"/><path d="M3562.47,1115.84c-57.487,-0 -105.132,-10.623 -142.936,-31.868c-37.804,-21.245 -66.391,-50.926 -85.761,-89.042c-19.371,-38.116 -29.994,-82.481 -31.868,-133.094c-0.625,-25.619 -0.937,-53.113 -0.937,-82.481c-0,-29.368 0.312,-57.487 0.937,-84.355c1.874,-50.614 12.497,-94.978 31.868,-133.095c19.37,-38.116 47.957,-67.796 85.761,-89.041c37.804,-21.246 85.449,-31.868 142.936,-31.868c43.115,-0 80.918,5.936 113.411,17.808c32.492,11.873 59.517,27.806 81.075,47.802c21.557,19.995 37.96,42.334 49.207,67.015c11.248,24.682 17.496,50.145 18.746,76.389c0.625,5.624 -1.094,10.31 -5.155,14.059c-4.062,3.749 -8.904,5.624 -14.528,5.624l-51.551,0c-5.623,0 -10.466,-1.562 -14.528,-4.686c-4.061,-3.125 -7.029,-8.748 -8.904,-16.872c-10.622,-48.738 -30.461,-82.168 -59.517,-100.289c-29.056,-18.121 -65.141,-27.181 -108.256,-27.181c-50.614,-0 -90.604,14.215 -119.973,42.646c-29.368,28.431 -44.989,73.89 -46.864,136.375c-1.874,51.238 -1.874,103.726 0,157.464c1.875,62.485 17.496,107.943 46.864,136.374c29.369,28.431 69.359,42.647 119.973,42.647c43.115,-0 79.2,-9.061 108.256,-27.182c29.056,-18.12 48.895,-51.55 59.517,-100.289c1.875,-8.123 4.843,-13.747 8.904,-16.871c4.062,-3.124 8.905,-4.686 14.528,-4.686l51.551,-0c5.624,-0 10.466,1.718 14.528,5.155c4.061,3.436 5.78,7.967 5.155,13.59c-1.25,26.244 -7.498,51.863 -18.746,76.858c-11.247,24.994 -27.65,47.489 -49.207,67.484c-21.558,19.995 -48.583,35.929 -81.075,47.801c-32.493,11.873 -70.296,17.809 -113.411,17.809Z" style="fill-rule:nonzero;"/><path d="M4023.61,1284.55c-4.999,-0 -9.373,-1.875 -13.122,-5.624c-3.749,-3.749 -5.624,-8.123 -5.624,-13.122c0,-2.499 0.313,-4.999 0.938,-7.498c0.624,-2.5 1.874,-5.624 3.749,-9.373l72.17,-171.523l-179.021,-422.715c-3.124,-7.498 -4.686,-12.809 -4.686,-15.933c-0,-5.624 1.875,-10.31 5.624,-14.06c3.749,-3.749 8.435,-5.623 14.059,-5.623l45.927,-0c6.873,-0 11.872,1.562 14.996,4.686c3.125,3.124 5.624,6.874 7.499,11.248l142.467,341.171l146.216,-341.171c1.874,-4.374 4.53,-8.124 7.967,-11.248c3.436,-3.124 8.591,-4.686 15.465,-4.686l44.052,-0c5.624,-0 10.31,1.874 14.059,5.623c3.75,3.75 5.624,8.124 5.624,13.122c0,3.125 -1.562,8.748 -4.686,16.871l-266.189,613.921c-1.874,4.374 -4.53,8.123 -7.967,11.247c-3.436,3.125 -8.591,4.687 -15.465,4.687l-44.052,-0Z" style="fill-rule:nonzero;"/><path d="M4635.66,1115.84c-44.365,-0 -82.637,-8.592 -114.817,-25.776c-32.18,-17.183 -57.018,-41.865 -74.514,-74.045c-17.496,-32.18 -26.869,-70.765 -28.119,-115.754c-0.625,-9.373 -0.937,-21.87 -0.937,-37.492c-0,-15.621 0.312,-28.118 0.937,-37.491c1.25,-44.99 10.623,-83.574 28.119,-115.754c17.496,-32.181 42.334,-56.862 74.514,-74.046c32.18,-17.183 70.452,-25.775 114.817,-25.775c36.241,-0 67.328,4.999 93.259,14.996c25.932,9.998 47.333,22.808 64.204,38.429c16.871,15.621 29.525,32.493 37.96,50.613c8.436,18.121 12.966,35.305 13.591,51.551c0.625,6.248 -1.25,11.247 -5.624,14.996c-4.374,3.75 -9.685,5.624 -15.934,5.624l-44.989,0c-6.249,0 -10.935,-1.406 -14.059,-4.218c-3.125,-2.812 -6.249,-7.654 -9.373,-14.528c-11.248,-30.617 -26.557,-52.175 -45.927,-64.672c-19.371,-12.497 -43.428,-18.746 -72.171,-18.746c-37.491,0 -67.953,11.56 -91.385,34.68c-23.432,23.119 -36.085,60.298 -37.96,111.536c-0.625,22.495 -0.625,44.365 -0,65.61c1.875,51.863 14.528,89.198 37.96,112.006c23.432,22.807 53.894,34.21 91.385,34.21c28.743,0 52.8,-6.248 72.171,-18.745c19.37,-12.497 34.679,-34.055 45.927,-64.673c3.124,-6.873 6.248,-11.872 9.373,-14.996c3.124,-3.125 7.81,-4.687 14.059,-4.687l44.989,0c6.249,0 11.56,2.031 15.934,6.093c4.374,4.061 6.249,9.216 5.624,15.465c-0.625,13.122 -3.437,26.556 -8.436,40.303c-4.998,13.747 -12.965,27.65 -23.9,41.709c-10.935,14.059 -24.526,26.556 -40.772,37.491c-16.246,10.935 -35.617,19.683 -58.112,26.244c-22.495,6.561 -48.426,9.842 -77.794,9.842Z" style="fill-rule:nonzero;"/><path d="M4978.7,1106.47c-6.248,-0 -11.403,-2.031 -15.465,-6.092c-4.061,-4.062 -6.092,-9.217 -6.092,-15.466l-0,-622.356c-0,-6.248 2.031,-11.403 6.092,-15.465c4.062,-4.061 9.217,-6.092 15.465,-6.092l44.053,-0c6.873,-0 12.184,2.031 15.934,6.092c3.749,4.062 5.623,9.217 5.623,15.465l0,622.356c0,6.249 -1.874,11.404 -5.623,15.466c-3.75,4.061 -9.061,6.092 -15.934,6.092l-44.053,-0Z" style="fill-rule:nonzero;"/><path d="M5378.92,1115.84c-64.985,-0 -116.535,-19.839 -154.651,-59.518c-38.117,-39.678 -59.049,-93.884 -62.798,-162.618c-0.625,-8.123 -0.938,-18.59 -0.938,-31.399c0,-12.81 0.313,-23.276 0.938,-31.399c2.499,-44.365 12.809,-83.262 30.93,-116.692c18.121,-33.43 42.959,-59.205 74.514,-77.326c31.555,-18.121 68.578,-27.181 111.068,-27.181c47.489,-0 87.324,9.998 119.504,29.993c32.18,19.995 56.705,48.426 73.576,85.293c16.871,36.866 25.307,79.981 25.307,129.345l0,15.934c0,6.873 -2.031,12.184 -6.092,15.933c-4.062,3.75 -9.217,5.624 -15.466,5.624l-324.299,0l-0,8.436c1.249,25.619 6.873,49.519 16.871,71.702c9.997,22.182 24.525,40.147 43.583,53.894c19.058,13.746 41.397,20.62 67.016,20.62c22.495,-0 41.24,-3.437 56.237,-10.31c14.997,-6.874 27.181,-14.528 36.554,-22.964c9.373,-8.435 15.621,-15.152 18.746,-20.151c5.623,-7.499 9.997,-12.029 13.122,-13.591c3.124,-1.562 8.123,-2.343 14.996,-2.343l45.927,-0c5.624,-0 10.466,1.718 14.528,5.155c4.062,3.437 5.78,8.279 5.155,14.528c-0.625,9.373 -5.624,20.776 -14.996,34.211c-9.373,13.434 -22.651,26.712 -39.835,39.834c-17.184,13.122 -38.429,23.901 -63.735,32.336c-25.307,8.436 -53.894,12.654 -85.762,12.654Zm-128.407,-288.683l256.815,-0l0,-2.812c0,-28.119 -5.155,-53.113 -15.465,-74.983c-10.31,-21.87 -25.15,-39.21 -44.521,-52.019c-19.371,-12.81 -42.49,-19.214 -69.359,-19.214c-26.869,-0 -49.832,6.404 -68.89,19.214c-19.058,12.809 -33.586,30.149 -43.584,52.019c-9.998,21.87 -14.996,46.864 -14.996,74.983l-0,2.812Z" style="fill-rule:nonzero;"/></g></svg>